<?xml version="1.0" encoding="utf-8"?>
<!-- Generator: Adobe Illustrator 24.3.0, SVG Export Plug-In . SVG Version: 6.00 Build 0)  -->
<svg version="1.1" id="Capa_1" xmlns="http://www.w3.org/2000/svg" xmlns:xlink="http://www.w3.org/1999/xlink" x="0px" y="0px"
	 viewBox="0 0 500 193.4" style="enable-background:new 0 0 500 193.4;" xml:space="preserve">
<style type="text/css">
	.st0{fill:#1226AA;}
</style>
<g>
	<path class="st0" d="M180.5,143.3c29.7,1,52.1-15.3,53.5-38.8c1.3-25.8-24.5-31.5-45.1-36.1l-0.4,1.5l0.4-1.5
		c-14.2-3.2-26.4-5.9-25.9-13.3c0.4-6.6,8.7-11.4,18.9-11.1c12.5,0.4,21.7,5.9,22.9,13.5c0.3,1.3,1.9,1.3,2.6,0.8
		c0.8-0.4,22.6-12.5,22.6-12.5c0.7-0.4,1-1.3,0.7-2c-7-15.3-25-25.3-47.1-26c-27.1-0.9-48.4,14.7-49.7,36.5
		c-1.6,28.9,24.6,34.2,45.7,38.6c15.7,3.2,25.2,5.7,24.9,12.6c-0.4,7.2-10,12.3-22.4,11.8c-12-0.4-21.1-6.3-23.2-15.1
		c-0.1-0.5-0.4-0.8-0.9-1c-0.4-0.2-0.9-0.2-1.3,0.1l-22.7,12.6c-0.7,0.4-1,1.3-0.7,2C140.7,132.3,158.3,142.5,180.5,143.3"/>
	<path class="st0" d="M483.3,56.4c-10.9-10.8-26.2-16.8-43.1-16.8c-35,0-60.4,25-60.4,59.5c0,35.9,25.7,62,61,62
		c23.7,0,45.5-12.5,53-30.5c0.2-0.4,0.2-0.8,0-1.2c-0.2-0.4-0.5-0.7-0.9-0.8l-23.7-7.8c-0.7-0.2-1.4,0-1.7,0.6
		c-5,8.1-16.2,13.8-27.2,13.8c-14.7,0-25.9-9.3-29.5-24.5h87.2c0.8,0,1.4-0.6,1.5-1.3l0.2-1.8c0.1-1.4,0.4-5.1,0.4-8.3
		C500.1,82.4,494.1,67.2,483.3,56.4 M411,87c4-13.3,14.8-21.5,28.5-21.5c14.3,0,25.6,8.4,29.2,21.5H411z"/>
	<path class="st0" d="M366.3,0.3c-0.4-0.3-0.9-0.3-1.4-0.2l-26.8,9.8c-0.6,0.2-1,0.8-1,1.4v41.5c-9.4-8.5-21.7-13.2-35.1-13.2
		c-32.9,0-56.8,25.5-56.8,60.7c0,35.2,23.9,60.7,56.8,60.7c14.2,0,27.2-5.2,36.8-14.6l5,9.6c0.3,0.5,0.8,0.8,1.3,0.8h20.2
		c0.8,0,1.5-0.7,1.5-1.5V1.5C366.9,1,366.7,0.5,366.3,0.3 M306.5,132.8c-18.4,0-31.7-13.7-31.7-32.5c0-18.8,13.3-32.5,31.7-32.5
		c18.3,0,31.5,13.7,31.5,32.5C338,119.1,324.8,132.8,306.5,132.8"/>
	<path class="st0" d="M234.3,154.8c-0.3-0.5-1-0.6-1.5-0.4c-14.7,8.1-31.5,12.7-49.2,12.7h0h0c-17.8,0-34.5-4.6-49.2-12.7
		c-0.5-0.3-1.2-0.1-1.5,0.4l-13.5,19.8c-0.4,0.6-0.2,1.3,0.4,1.7c18.9,10.9,40.7,17.1,63.8,17.1c0,0,0,0,0,0c0,0,0,0,0,0
		c23.1,0,44.9-6.2,63.8-17.1c0.6-0.3,0.8-1.1,0.4-1.7L234.3,154.8z"/>
	<path class="st0" d="M61.4,39.6c-36,0-61.2,25-61.2,60.7C0.1,136,25.3,161,61.4,161c36,0,61.2-25,61.2-60.7
		C122.6,64.5,97.4,39.6,61.4,39.6 M61.4,134.1c-18.4,0-31.7-14.2-31.7-33.8c0-19.6,13.3-33.8,31.7-33.8c18.4,0,31.7,14.2,31.7,33.8
		C93.1,119.9,79.7,134.1,61.4,134.1"/>
</g>
</svg>
